<svg xmlns="http://www.w3.org/2000/svg" width="34.005" height="27.629" viewBox="0 0 34.005 27.629"><defs><style>.a{fill:#111;}</style></defs><path class="a" d="M34,51.271a14.535,14.535,0,0,1-4.017,1.1,6.932,6.932,0,0,0,3.067-3.853,13.932,13.932,0,0,1-4.421,1.687,6.971,6.971,0,0,0-12.059,4.767,7.178,7.178,0,0,0,.162,1.59A19.732,19.732,0,0,1,2.368,49.271,6.973,6.973,0,0,0,4.51,58.588a6.885,6.885,0,0,1-3.15-.859v.077a7,7,0,0,0,5.585,6.85,6.958,6.958,0,0,1-1.828.23,6.164,6.164,0,0,1-1.32-.119,7.038,7.038,0,0,0,6.514,4.856A14.008,14.008,0,0,1,1.668,72.6,13.057,13.057,0,0,1,0,72.5a19.626,19.626,0,0,0,10.694,3.128c12.828,0,19.842-10.626,19.842-19.838,0-.308-.011-.606-.026-.9A13.907,13.907,0,0,0,34,51.271Z" transform="translate(0 -48)"/></svg>