<svg xmlns="http://www.w3.org/2000/svg" viewBox="0 0 444.86 366.55"><defs>
<style>
.cls-1{
  fill:#242424;
}
@media (prefers-color-scheme: dark){
  .cls-1{
    fill:#ffffff;
  }
}
</style></defs><g id="Calque_2" data-name="Calque 2"><g id="Calque_5" data-name="Calque 5"><path class="cls-1" d="M136,183.3A47.29,47.29,0,1,0,183.3,136,47.35,47.35,0,0,0,136,183.3Z"/><path class="cls-1" d="M271.3,193.63a88.64,88.64,0,1,1-98.38-98.38V.32h0A183.37,183.37,0,0,0,0,183.29c0,101,82.23,183.26,183.3,183.26a181.82,181.82,0,0,0,88.63-22.92c53.53-29.69,90.74-85.47,94.31-150H271.3Z"/><polygon class="cls-1" points="193.63 0 193.63 0.32 193.63 94.62 193.63 94.62 271.93 94.62 271.93 172.92 366.24 172.92 366.55 172.92 366.55 94.62 444.86 94.62 444.86 0 193.63 0"/></g></g></svg>