<svg xmlns="http://www.w3.org/2000/svg" width="150.024" height="74" viewBox="0 0 150.024 74"><defs><style>.a{fill:#d0d0d0;}</style></defs><g transform="translate(0.023)"><path class="a" d="M238.043,112.247c0,15.17,0,29.83,0,45a3.861,3.861,0,0,1-4,4c-1.373-.01-2.627-.03-4,0-.437.01-1,.411-1,0,.01-13.7,0-27.3,0-41v-8Z" transform="translate(-188.043 -112.247)"/><path class="a" d="M420.7,112.247c0,2.453-.016,4.547,0,7a1.255,1.255,0,0,1-1,1c-2.7-.022-5.3-.022-8,0-.431,0,0-.615,0-1,.016-2.453,0-4.547,0-7Z" transform="translate(-297.701 -112.247)"/><path class="a" d="M411.7,162.556c0-5.974.014-12.026,0-18,0-.429-.466,0,0,0,2.671.025,5.329.018,8,0,.416,0,1-.432,1,0-.013,10.852.022,22.147,0,33,0,1.129-1.148,1.244-2,2a3.759,3.759,0,0,1-3,1c-1.265-.028-2.735-.031-4,0-.425.01,0,.393,0,0C411.711,174.566,411.7,168.545,411.7,162.556Z" transform="translate(-297.699 -131.556)"/><path class="a" d="M251.928,277.731a2.157,2.157,0,0,1,3,0,.815.815,0,0,0,1,0c.967-.916,2.468-.422,3,1,.15.4.992.577,1,1,.022,1.1-.012,1.9,0,3a1.758,1.758,0,0,1-1,1c-1.219.027-1,.217-1-1,0-.8-.028-2.2,0-3,.022-.61-.4-.94-1-1a.907.907,0,0,0-1,1c-.014,1.064-.018,1.936,0,3,.005.321.327,1,0,1-1.168,0-2,.153-2-1,0-.818.015-2.183,0-3-.015-.836-.253-1.216-1-1-.385.111-1,.447-1,1-.006,1.034-.02,1.967,0,3,.007.337.357,1,0,1-1.149-.007-1,.167-1-1,0-1.45.02-3.55,0-5,0-.352-.342-.039,0,0a7.1,7.1,0,0,0,1,0C252.168,277.706,251.927,277.452,251.928,277.731Z" transform="translate(-200.928 -211.732)"/><path class="a" d="M231.216,277.729c.666-.641,1.066-.108,2,0,.978.113,1.768-.043,2,1,.026.119,0,.878,0,1,0,1.172-.017,1.828,0,3a1.435,1.435,0,0,1-1,1c-1.061-.01-1,.069-1-1,0-.848.013-2.152,0-3-.01-.629-.452-.912-1-1-.44-.071-.839.475-1,1a3.69,3.69,0,0,0,0,1c.01.895-.016,1.106,0,2,.005.294.31,1,0,1-1.1.011-1,.088-1-1,0-.771.021-2.23,0-3-.019-.7-.359-.923-1-1-.462-.056-.863.56-1,1-.117.377-1,.6-1,1,.009.879.984,1.121,1,2,.005.284-.72.995-1,1-1.119.021-1,.124-1-1,0-1.435.033-3.566,0-5-.011-.466.575-.094,1,0,.285.063-.234-.377,0,0a2.48,2.48,0,0,0,1,0c.511-.27.409-.128,1,0C229.753,277.845,230.9,277.3,231.216,277.729Z" transform="translate(-186.216 -211.728)"/><path class="a" d="M399.16,277.67c.959-.865,1.967-.467,3,0a2.1,2.1,0,0,1,1,2c.044,1.249-.012,1.75,0,3a1.758,1.758,0,0,1-1,1c-1.219.027-1,.218-1-1,0-.71-.027-2.291,0-3,.04-1.044-.394-.953-1-1-.685-.054-.988.184-1,1-.013.941-.019,2.059,0,3a1.369,1.369,0,0,1-1,1c-1.134-.016-1,.132-1-1,0-1.5.016-3.5,0-5,0-.322.672-.039,1,0,.183.021-.184.017,0,0C398.515,277.636,399.285,277.113,399.16,277.67Z" transform="translate(-289.16 -211.67)"/><path class="a" d="M477.538,278.675c-.289-.016.205.526,0,0-.084-.214-.734-.092-1,0-.214.074.015-.237,0,0-.019.3-.213.918,0,1,.382.147.612-.131,1,0,1.114.378,1.137.78,1,2-.084.749-.148,1.934-1,2a3.928,3.928,0,0,1-3-1c-.262-.314.112-.643,0-1-.048-.154-.108,0,0,0,.37,0,.631.018,1,0,.206-.01-.073-.131,0,0,.179.319.618,1.042,1,1a2,2,0,0,0,1-1c.056-.295-.711.116-1,0-.536-.215-.462-.791-1-1-.653-.254-.976-1.363-1-2-.025-.678.394-.655,1-1a2.906,2.906,0,0,1,3,0c.49.316-.117.492,0,1,.034.149.091,0,0,0C478.338,278.681,477.827,278.675,477.538,278.675Z" transform="translate(-335.538 -211.675)"/><path class="a" d="M412.687,277.862c0-.647-.02-1.353,0-2,.009-.306-.657-.021-1,0-.2.012.055.225,0,0a2.182,2.182,0,0,1,0-1c.036-.184-.169-.018,0,0,.391.042,1.031-.616,1-1s.023-.6,0-1c-.016-.293-.274.005,0,0,1.207-.024,1-.221,1,1,0,.077,0-.077,0,0,.005.738.346,1.014,1,1,.32-.007.047-.328,0,0-.015.106-.018-.1,0,0,.083.472.463,1.084,0,1-.376-.068-1.005-.352-1,0,.019,1.279-.021,2.721,0,4,.006.356.336,1,0,1-1.137-.007-1,.127-1-1Z" transform="translate(-297.687 -208.862)"/><path class="a" d="M461.667,280.726c0-.832.031-2.169,0-3-.015-.4-.373-.043,0,0,.228.026.769,0,1,0,.046,0-.021-.023,0,0,.481.513.57.039,1,0,.541-.049,1-.542,1,0h0c0,.8-.244.75-1,1-.641.212-.96,1.165-1,2-.042.876-.017,1.122,0,2,.006.3.343,1,0,1-1.182,0-1,.188-1-1Z" transform="translate(-327.667 -211.726)"/><path class="a" d="M316.721,277c0,1.187-.015,1.813,0,3a1.538,1.538,0,0,1-1,1c-1.087,0-1,.095-1-1,0-2.127.017-4.873,0-7,0-.383.566-.014,1,0,.993.031,1,.016,1,1Z" transform="translate(-239.721 -209.001)"/><path class="a" d="M343.665,280.676c0-.817.027-2.184,0-3-.013-.385-.427-.1,0,0,.313.073.763-.418,1,0,.064-.037-.041.054,0,0,.2-.26.731.083,1,0,.228-.071.006-.277,0,0,0,.154-.019-.152,0,0,.059.464.576.937,0,1a1.117,1.117,0,0,0-1,1c0,1-.024,2,0,3,.008.356.337,1,0,1-1.044-.009-1,.034-1-1Z" transform="translate(-256.665 -211.676)"/><path class="a" d="M470.715,280.946c0,.863-.013,1.137,0,2,0,.279.324,1,0,1-1.206.017-1,.22-1-1,0-1.464.014-3.537,0-5,0-.32-.372,0,0,0,1.16.008,1-.155,1,1Z" transform="translate(-332.715 -211.946)"/><path class="a" d="M311.084,281.085c0,.863-.012,1.137,0,2,0,.253-.733.99-1,1-1.242.046-1,.254-1-1,0-1.448.012-3.552,0-5,0-.293-.31,0,0,0,1.2-.015,2-.179,2,1Z" transform="translate(-236.084 -212.085)"/><path class="a" d="M221.724,281.085c0,.848-.018,1.153,0,2,.006.307.34,1,0,1-1.086,0-1,.094-1-1,0-1.464.016-3.537,0-5,0-.342-.387-.007,0,0,1.039.018,1-.036,1,1C221.724,279.732,221.725,280.439,221.724,281.085Z" transform="translate(-182.724 -212.085)"/><path class="a" d="M322.226,281.088c0,.863-.013,1.137,0,2,0,.268.3.994,0,1-1.131.025-1,.116-1-1,0-1.479.014-3.521,0-5,0-.309-.337,0,0,0,1.084,0,1-.1,1,1Z" transform="translate(-243.226 -212.089)"/><path class="a" d="M376.423,273.985a9.647,9.647,0,0,0,0,1c.082.531-1.281.934-2,1-.137.012-.028.172,0,0,.038-.234-.342-.844,0-1,.132-.06.924.18,1,0,.094-.223-.657-1.039-1-1-.326.037-.034.28,0,0,0-.03,0,.031,0,0-.006-1.152-.169-1.054,1-1,.234.011,1.014-.246,1,0C376.407,273.261,376.423,273.708,376.423,273.985Z" transform="translate(-275.423 -208.985)"/><path class="a" d="M470.713,272.859c.759,0,0-.746,0,0,0,.139-.011.863,0,1,.02.233.247.028,0,0-.076-.009.077,0,0,0-1.044,0-.986.025-1-1,0-.352-.375-.058,0,0C469.832,272.878,470.59,272.859,470.713,272.859Z" transform="translate(-332.713 -208.859)"/><path class="a" d="M310.092,273.02c.751,0,1-.708,1,0,0,.681-.269,1-1,1-.843,0-1.006-.246-1-1,.006-.727.271.012,1,0Z" transform="translate(-236.092 -209.02)"/><path class="a" d="M321.235,273.02c.731,0,1.008-.728,1,0-.009.773-.136.992-1,1-.731.007-.008-.273,0-1C321.243,272.247,320.37,273.035,321.235,273.02Z" transform="translate(-243.235 -209.02)"/><path class="a" d="M220.735,274.02c-.722,0,0-.31,0-1s-.713,0,0,0c.768,0,1-.644,1,0C221.735,273.765,221.495,274.02,220.735,274.02Z" transform="translate(-182.735 -209.02)"/><path class="a" d="M450.318,278.688c-.553-1.283-2.009-1.245-3-1-.546.135-1.5-.34-2,0,.129-.565.441-.069,0,0-.09.014-.908,0-1,0-.708.01,0-.687,0,0,0,2.484,0,5.516,0,8h1v-3c.138.054.95-.047,1,0,.926.882,3.123,1.39,4,0A4.457,4.457,0,0,0,450.318,278.688Zm-3,3c-.976,0-2-.005-2-1a2.194,2.194,0,0,1,2-2,2.22,2.22,0,0,1,2,2C449.344,281.628,448.267,281.69,447.318,281.688Z" transform="translate(-317.318 -211.688)"/><path class="a" d="M492.556,279.7c-.187-1.572-1.411-1.969-3-2a3.039,3.039,0,0,0-3,4c.176.625.473.576,1,1,.71.571,1.107,1.013,2,1,1.049-.015,2.738-.886,3-2-.422,0-1.587.007-2,0-.225,0,.159-.212,0,0-.586.785-2.553.872-3,0-.216-.422-.474-1,0-1,1.265,0,2.735,0,4,0,.2,0,.883.219,1,0v-1C492.526,279.653,492.562,279.753,492.556,279.7Zm-2,0c-.415-.007-.585,0-1,0-.4,0-1.6-.019-2,0-.369.018-.113.148,0,0a2.925,2.925,0,0,1,2-1c.613.037.674.535,1,1C490.717,279.931,490.776,279.7,490.556,279.7Z" transform="translate(-342.556 -211.701)"/><path class="a" d="M316.708,156.619a16.883,16.883,0,0,0-2-5,15.342,15.342,0,0,0-2-3,26.375,26.375,0,0,0-5-5,16.309,16.309,0,0,0-5-2,14.172,14.172,0,0,0-4-1c-.751-.011-2.245-.068-3,0-1.327.12-1.729.625-3,1a22.23,22.23,0,0,0-8,4,19.057,19.057,0,0,0-4,5c-1.778,3.177-1.977,6.354-2,10,0,.554.044,1.43,0,2-.369-.528-.562-1.536-1-2-1.465-1.553-4.042-2.259-6-3s-4.026-1.336-6-2a10.359,10.359,0,0,1-4-2c-1.754-1.634-.76-4.046,1-5,1.284-.7,2.64-.284,4,0a3.393,3.393,0,0,1,3,3,1.367,1.367,0,0,0,1,1c2.578-.017,4.422-.027,7,0,.483.006,1.056-.629,1-1a18.689,18.689,0,0,0-1-4,9.794,9.794,0,0,0-5-5,15.789,15.789,0,0,0-6-2c-1.421-.073-2.577.76-4,1a11.811,11.811,0,0,0-5,2c-.252.164-1-.295-1,0,.009,5.295.013,10.705,0,16,0,.307.758.866,1,1a66.236,66.236,0,0,0,6,3c1.649.712,3.4,1.172,5,2,.679.352,1.551.35,2,1,1.094,1.583-.373,3.8-2,5a4.2,4.2,0,0,1-4,1c-1.024-.212-2.268-.269-3-1a5,5,0,0,1-1-3c-.038-.275-.721,0-1,0-.926.015-1.074.019-2,0-.316-.006-1-.29-1,0,.009,2.933.006,6.067,0,9,0,.26.771-.14,1,0,2.139,1.3,4.535,2.8,7,3,1.679.137,3.341-.625,5-1a13.629,13.629,0,0,0,7-4,11.08,11.08,0,0,0,3-5c.234-.907-.106-1.06,0-2a18.913,18.913,0,0,0,5,7,19.52,19.52,0,0,0,8,4c2.88.827,5.06,1.57,8,1,7.043-1.366,13.265-6.907,15-13-.025-.015.025,0,0,0-3.18-.005-6.82,0-10,0-.129,0,.075-.136,0,0-.237.428-.693.619-1,1a9.637,9.637,0,0,1-4,3,10.124,10.124,0,0,1-13-6c-.208-.577.391-1,1-1h28c.116,0-.029.144,0,0a16.892,16.892,0,0,0,0-3A28.086,28.086,0,0,0,316.708,156.619Zm-9,1c-6.587,0-13.413-.013-20,0-.414,0-.093-.668,0-1a10.079,10.079,0,0,1,3-5c1.571-1.456,3.865-1.69,6-2,1.769-.257,3.322-.6,5,0a8.377,8.377,0,0,1,4,3,11.05,11.05,0,0,1,2,4c.045.145.959.81,1,1Z" transform="translate(-204.708 -129.619)"/><path class="a" d="M429.3,279.674c-.618-2.581-3.412-3.743-5-2-.084.092.2,1.024,0,1,0-.294-.023-.711,0-1,.026-.324-.751-.056-1,0-.445.1-.552-.454-1,0,.181-.633-.733,0-1,0-.2,0,.2.023,0,0-.335-.039-1-.314-1,0,.015,1.481,0,3.519,0,5,0,1.19.819,1,2,1,.344,0,.006-.7,0-1-.017-.863,0-1.137,0-2,0-1.042-.1-1.794,1-2-1.057,2.485,1.308,4.683,3,5,1.648.309,2.459-.326,3-2-.393,0-.617.02-1,0-.267-.014-.811-.195-1,0-.531.547-1.317.346-2,0-.406-.206.028-.468,0-1h0c1.249,0,2.75.006,4,0,.149,0,0,.277,0,0A3.656,3.656,0,0,0,429.3,279.674Zm-4,0c-.2,0-.085.188,0,0,.253-.56.275-1.05,1-1,.586.041,1.816.362,2,1C427.375,279.674,426.222,279.672,425.3,279.674Z" transform="translate(-303.305 -211.674)"/><path class="a" d="M362.647,273.866c0-1.184.189-1.013-1-1-.3,0-.008-.3,0,0,.019.705,0,1.153,0,2-.488-.529-1.456.08-2,0a1.945,1.945,0,0,0-2,1c-.522.723-1.037,1.136-1,2,.044,1.035.133,1.461,1,2a3.73,3.73,0,0,0,4,0c-.04.34-.311,1.034,0,1a6.266,6.266,0,0,1,1,0c.345.037,0-.652,0-1C362.631,277.707,362.647,276.024,362.647,273.866Zm-3,5c-.934,0-2-.037-2-1a2.208,2.208,0,0,1,2-2,2.261,2.261,0,0,1,2,2C361.6,278.724,360.625,278.951,359.647,278.866Z" transform="translate(-264.647 -208.866)"/><path class="a" d="M297.717,276a2.581,2.581,0,0,0-4-1c-.2.149,0,.178,0,0,0-.4,0-.6,0-1,0-.985-.007-.969-1-1-.434-.014-1-.383-1,0,.017,2.19,0,4.81,0,7,0,.887.1.981,1,1,.359.008,1.116-.493,1-1,1.175,1.031,2.25,1.484,3,1C298.245,280.014,298.393,277.368,297.717,276Zm-3,4c-1.166.059-1.017-1.149-1-2,.02-1,.026-1.986,1-2a2.062,2.062,0,0,1,2,2C296.731,279.06,295.508,280.141,294.717,280Z" transform="translate(-225.717 -209.001)"/><path class="a" d="M387.089,279.7c-.423-1.831-2.314-2.395-4-2-1.71.4-2.387,1.31-2,3,.4,1.745,1.152,3.231,3,3,1.055-.132,2.749-.982,3-2-.359,0-1.65.024-2,0-.332-.023.236-.247,0,0-.69.722-2.438.854-3,0a1.959,1.959,0,0,1,0-1c.08-.146.871,0,1,0,1.281-.005,1.719.006,3,0,.15,0,1,.279,1,0A3.951,3.951,0,0,0,387.089,279.7Zm-5,0c-.242,0-.091.187,0,0a2.444,2.444,0,0,1,2-1c.586.034.779.336,1,1C384.145,279.7,383,279.69,382.089,279.7Z" transform="translate(-279.089 -211.695)"/><path class="a" d="M332.328,279.667c-.146-1.343-1.582-1.864-3-2-2.345-.225-3.648,1.915-3,4a2.932,2.932,0,0,0,3,2,4.342,4.342,0,0,0,3-2c.121-.182.107.2,0,0-.081-.153-.82.01-1,0-.2-.011.2.017,0,0-.277-.024-.8-.22-1,0-.7.79-1.548.955-2,0-.1-.206-.224-1,0-1,.663.006,1.337,0,2,0,.632,0,1.368-.014,2,0,.27.006-.063.308,0,0A3.381,3.381,0,0,0,332.328,279.667Zm-2,0c-.1.165.193-.008,0,0-.322.012-.677,0-1,0-.415,0-.586-.025-1,0-.308.018-1.086.182-1,0,.269-.57,1.4-.921,2-1,.541-.071.638-.418,1,0,.019.021-.016.974,0,1C330.436,279.843,330.459,279.46,330.328,279.667Z" transform="translate(-246.328 -211.667)"/><path class="a" d="M277.264,277.719a2.75,2.75,0,0,0-3,3,2.806,2.806,0,0,0,3,3c1.6.176,3.988-1.321,4-3C281.277,278.891,279.06,277.66,277.264,277.719Zm0,5c-.984,0-1-.954-1-2s.1-2.043,1-2a2.161,2.161,0,0,1,2,2A2.252,2.252,0,0,1,277.264,282.719Z" transform="translate(-215.264 -211.718)"/><path class="a" d="M164.735,142.713c0-.359.333-1,0-1-2.454.013-4.546.019-7,0a1.377,1.377,0,0,0-1,1c.016,1.389,0,2.611,0,4,0,.127.1-.118,0,0-.042-.022.013.021,0,0-1.139-1.9-3.074-2.958-5-4-1.734-.938-3.031-1.817-5-2-1.766-.164-4.257.708-6,1a15.77,15.77,0,0,0-6,2,15.588,15.588,0,0,0-5,4,25.915,25.915,0,0,0-3,5,15.789,15.789,0,0,0-1,4c-.082.565.092,1.437,0,2v4c.087.038,0-.076,0,0a25.02,25.02,0,0,0,1,5,16.655,16.655,0,0,0,4,7,17.167,17.167,0,0,0,4,3,17.856,17.856,0,0,0,8,2,18.271,18.271,0,0,0,5,0,15.577,15.577,0,0,0,5-2c1.1-.677,2.181-.983,3-2,.386-.479.6-1.48,1-2,.08.559-.09,1.492,0,2a3.815,3.815,0,0,0,4,3c1.2.013,2.8-.018,4,0,.329,0,0,.364,0,0C164.725,166.674,164.726,154.752,164.735,142.713Zm-9,24c-1.044,2.008-2.995,2.906-5,4a10.35,10.35,0,0,1-5,1c-2.7-.028-4.907-.259-7-2a11.385,11.385,0,0,1-4-7c-.517-2.786.527-5.579,2-8a12.545,12.545,0,0,1,5-5,7.245,7.245,0,0,1,3-1c1.978-.178,4.253,1.111,6,2a9.356,9.356,0,0,1,4,4c1.01,1.753,1.926,2.976,2,5C156.816,161.909,156.744,164.773,155.735,166.713Z" transform="translate(-125.735 -129.713)"/><path class="a" d="M176.933,181.752c-3-1.505-6.007-2.488-9-4-.367-.185,0-.361,0,0,.016,1.482,0,3.518,0,5,0,1.5.008,2.5,0,4,0,.308-.379.191,0,0,3.008-1.517,5.988-2.491,9-4,.105-.053,0,.137,0,0C176.937,182.585,177.048,181.81,176.933,181.752Z" transform="translate(-150.933 -151.752)"/></g></svg>