<svg xmlns="http://www.w3.org/2000/svg" width="212" height="52" viewBox="0 0 212 52"><defs><style>.a{fill:#d0d0d0;}</style></defs><g transform="translate(-0.071)"><path class="a" d="M1213.708,159.1h-7l4-13Zm-11,14,3-9h10l2,9h9l-9-32a3.99,3.99,0,0,0-4-3h-12v3h1a1.913,1.913,0,0,1,2,2,13.853,13.853,0,0,1-1,3l-9,27Z" transform="translate(-1194.637 -131.096)"/><path class="a" d="M1291.92,173.1v-32c0-1.643-.408-3-2-3h-8v3h0a1.766,1.766,0,0,1,2,2v30Z" transform="translate(-1249.849 -131.096)"/><path class="a" d="M1329.672,173.1v-32a3.057,3.057,0,0,0-3-3h-7v3h0a1.762,1.762,0,0,1,2,2v30Z" transform="translate(-1273.601 -131.096)"/><path class="a" d="M1367.958,141.125c0-2.29-2.089-4-5-4-2.868,0-4,1.71-4,4,0,2.32,1.132,3,4,3,2.911,0,5-.68,5-3m0,31v-23a3.056,3.056,0,0,0-3-3h-7v3h0a1.767,1.767,0,0,1,2,2v21Z" transform="translate(-1297.887 -130.125)"/><path class="a" d="M1410.33,174.337v5a7.653,7.653,0,0,1-5,2c-1.441,0-2-.08-2-2,0-1.893.562-2.442,2-3a22.284,22.284,0,0,1,5-2m-11-6a19.827,19.827,0,0,1,8-2c2.157,0,3,.762,3,3v1c-3.276.518-5.151.594-7,1a18.208,18.208,0,0,0-3,1c-3.23,1.3-4,4.161-4,8,0,4.865,1.648,7,6,7a10.143,10.143,0,0,0,4-1,14.21,14.21,0,0,0,4-2h0c0,1.587.407,3,2,3h8v-3h-1c-1.379,0-2-.368-2-2v-13c0-6.5-2.489-8-9-8-2.1,0-4.007-.458-6,0a18.225,18.225,0,0,0-5,2Z" transform="translate(-1322.259 -145.337)"/><path class="a" d="M1475.187,187.441v-18a4.871,4.871,0,0,1,4-2c1.7,0,3,.428,3,3v17h8v-18c0-4.049-.716-5.626-2-7-1.078-1.185-2.895-1-5-1-3.127,0-5.041.232-8,3v-1c0-1.592-1.365-2-3-2h-7v3h0a1.767,1.767,0,0,1,2,2v21Z" transform="translate(-1366.116 -145.441)"/><path class="a" d="M1562.421,181.969h-11l11-15v-5h-17a2.738,2.738,0,0,0-3,3v4h3a1.864,1.864,0,0,1,2-2h6l-11,15v6h20Z" transform="translate(-1415.35 -145.97)"/><path class="a" d="M1660.123,159.178v-29c0-2.307-.757-3-3-3h-7v3h1c1.548,0,2,.14,2,2v27Zm4,0h7v-23c0-2.26-.794-3-3-3h-4Zm-15,0v-26h-4c-2.206,0-3,.74-3,3v23Zm29-15c0,12.754-9.4,22-22,22s-21-9.246-21-22,8.4-22,21-22,22,9.3,22,22m5,0c0-15-11.995-26-27-26s-26,11-26,26c0,15.018,10.986,26,26,26s27-10.982,27-26" transform="translate(-1471.052 -118.178)"/></g></svg>