<svg xmlns="http://www.w3.org/2000/svg" width="27.629" height="27.629" viewBox="0 0 27.629 27.629"><defs><style>.a{fill:#111;}</style></defs><path class="a" d="M0,160H6.179v18.995H0Z" transform="translate(0 -151.366)"/><path class="a" d="M174.374,160.223c-.066-.021-.128-.043-.2-.062s-.166-.035-.25-.048a5.539,5.539,0,0,0-1.109-.112,8.585,8.585,0,0,0-6.64,3.631V160H160v18.995h6.178V168.634s4.669-6.5,6.64-1.727v12.088h6.177V166.177A6.16,6.16,0,0,0,174.374,160.223Z" transform="translate(-151.366 -151.366)"/><circle class="a" cx="3" cy="3" r="3" transform="translate(0.809)"/></svg>