<svg xmlns="http://www.w3.org/2000/svg" width="250.755" height="102.406" viewBox="0 0 250.755 102.406"><defs><style>.a{fill:#d0d0d0;}</style></defs><g transform="translate(0)"><path class="a" d="M877.186,701.719c1.353-3.05,2.734-5.146,4-8,.16-.361.836-1.641,1-2,.527-1.149.766-1.243,2-1,.839.165,1,.819,1,2,0,5.971,0,12.029,0,18,0,1.161-.1,1.9-1,2a1.9,1.9,0,0,1-2-2c-.008-3.869,0-7.131,0-11v-1h0c-.526,1.206-.475,1.792-1,3-.472,1.086-1.564,2.9-2,4-.323.817-1.084,1-2,1-.882,0-.665-.227-1-1-.932-2.144-2.035-4.87-3-7-.08-.175.245.1,0,0-.222.305-1,.69-1,1-.009,3.808-.01,7.192,0,11,0,.846-.045,1.83-1,2-1.13.2-2-.741-2-2-.007-3.259,0-6.74,0-10,0-2.741,0-5.258,0-8,0-1.171,1.163-1.836,2-2,1.2-.235,1.489-.133,2,1C874.632,694.931,875.662,698.321,877.186,701.719Z" transform="translate(-765.652 -631.332)"/><path class="a" d="M794.258,564.806c-1,4.658-1.994,8.344-3,13-1.776,8.218-3.222,16.782-5,25-.039.176.013.818,0,1-.067.026-.029-.057,0,0-.028.135.029-.136,0,0-.174.653-1.022,1.308-1,2-.248.86.248,2.14,0,3-1.463,4.417-3.533,8.585-5,13-.723,2.176-1.071,4.893-2,7v-3c.687-2.015.538-3.934,1-6,1.171-5.241,2.87-10.75,4-16,1.872-8.693,3.125-17.307,5-26,1.049-4.864,2.95-9.136,4-14C793.028,564.747,793.139,565.261,794.258,564.806Z" transform="translate(-714.724 -560.419)"/><path class="a" d="M879.184,634.174c2.536,2.607,3.534,5.333,2,8a5.655,5.655,0,0,1-5,3c-1.523.044-3.476.008-5,0a1.977,1.977,0,0,1-2-2c-.012-6.031-.015-11.969,0-18a2.222,2.222,0,0,1,2-2c1.736-.037,3.271-.129,5,0a5.517,5.517,0,0,1,5,4c.744,2.366-.109,4.26-2,6C879.117,633.236,879.27,634.091,879.184,634.174Zm-7,4c0,.881.029,2.12,0,3a1.011,1.011,0,0,0,1,1c.909-.048,2.091.051,3,0a2.985,2.985,0,0,0,3-3c0-1.841-1.341-3.913-3-4-.91-.048-2.09.037-3,0a1.08,1.08,0,0,0-1,1C872.21,637.054,872.185,637.293,872.184,638.174Zm0-9c0,.822.023,2.179,0,3-.011.4.6.011,1,0,.853-.023,1.147.011,2,0a2.964,2.964,0,0,0,3-3c.052-1.8-.225-2.918-2-3-.881-.041-2.118.035-3,0a1.081,1.081,0,0,0-1,1C872.21,627.965,872.184,628.383,872.184,629.174Z" transform="translate(-765.65 -593.787)"/><path class="a" d="M985.985,701.993c0-2.955,0-6.045,0-9,0-1.533.439-2,2-2,1.647,0,3.357-.079,5,0,2.7.13,4.455,2.314,5,5,.57,2.812-.588,5.82-3,7-.679.332-.29.415,0,1,1.064,2.15,1.966,4.835,3,7,.271.567.4.486,0,1a2.749,2.749,0,0,1-2,1c-.63-.089-.76-.492-1-1-1.076-2.28-2.011-4.683-3-7-.425-.995-.93-1.042-2-1-.891.035-1.036.061-1,1,.084,2.16.018,3.837,0,6-.009,1.09-.042,1.979-1,2a2.066,2.066,0,0,1-2-2C985.977,707.977,985.985,705.009,985.985,701.993Zm3-5c0,.913.028,2.088,0,3-.013.428-.451,1.014,0,1,1.035-.031,2.964.021,4,0a2.832,2.832,0,0,0,3-3c.012-1.952-1.206-3.936-3-4-1.035-.038-1.965.032-3,0a1.075,1.075,0,0,0-1,1C989.028,695.844,988.985,696.141,988.985,696.993Z" transform="translate(-830.451 -631.606)"/><path class="a" d="M948.068,634.182c0-2.925,0-6.075,0-9,0-1.522.446-2,2-2,1.464,0,3.537-.034,5,0a6.351,6.351,0,0,1,6,5c.7,2.946-1.284,5.636-4,7-.47.236-.175.636,0,1,1.057,2.19,1.96,4.8,3,7,.478,1.011.806,1.607,0,2-.883.43-1.515.009-2-1-1.158-2.41-2.91-4.559-4-7-.327-.733-.22-1.036-1-1-1.462.068-2-.48-2,1,0,2.011.01,3.989,0,6-.005,1.123-.045,1.992-1,2a2.01,2.01,0,0,1-2-2C948.064,640.166,948.068,637.2,948.068,634.182Zm6-8h0c-.577,0-1.423.021-2,0-.36-.013-1,.65-1,1,.013,1.852.011,3.148,0,5a1.42,1.42,0,0,0,1,1c1.184-.024,1.824.111,3,0a3.188,3.188,0,0,0,3-3,4.056,4.056,0,0,0-3-4A3.744,3.744,0,0,0,954.068,626.182Z" transform="translate(-809.534 -593.794)"/><path class="a" d="M987.645,634.162c0-2.922,0-6.078,0-9,0-1.349-.336-2.018,1-2a49.358,49.358,0,0,1,6,0,6.341,6.341,0,0,1,5,6c.071,3.438.07,6.562,0,10a6.483,6.483,0,0,1-6,6c-1.675.037-3.324.009-5,0-1.145-.006-.957-.838-1-2,0-.061,0,.061,0,0C987.645,640.209,987.645,637.114,987.645,634.162Zm2,0c0,2.343.024,4.657,0,7a.957.957,0,0,0,1,1c.879-.059,2.118.027,3,0a2.856,2.856,0,0,0,3-3c.022-3.073.018-6.927,0-10a2.89,2.89,0,0,0-3-3c-.852-.026-2.15.046-3,0a.919.919,0,0,0-1,1C989.683,629.5,989.643,631.818,989.645,634.162Z" transform="translate(-831.111 -593.774)"/><path class="a" d="M1098.391,701.767c0-1.674-.025-3.327,0-5a6,6,0,0,1,12,0,108.366,108.366,0,0,1,0,11,5.174,5.174,0,0,1-5,5c-4.266.344-7-2.745-7-7,0-1.461,0-2.539,0-4Zm9,0c0-1.612.02-3.388,0-5-.024-1.988-.969-3-3-3a2.663,2.663,0,0,0-3,3c-.013,3.163-.013,6.837,0,10a2.676,2.676,0,0,0,3,3c2,.013,2.975-1.01,3-3C1107.411,705.186,1107.391,703.349,1107.391,701.767Z" transform="translate(-892.857 -631.38)"/><path class="a" d="M699.027,721.129c-4.014-.245-7.982.114-12,0-5.814-.165-12.186-.815-18-1-3.745-.119-7.255.118-11,0-3.988-.125-8.012.132-12,0-.973-.032-2.028.058-3,0a2.555,2.555,0,0,0,0-3c2.434-.185,5.568-.023,8,0,4.106.04,7.9-.13,12,0,5.748.181,11.252.808,17,1a9.022,9.022,0,0,0,3,0c.315.055.685-.055,1,0,.1.055-.11-.021,0,0,1.844.342,4.156.662,6,1,3.243.594,6.757,1.4,10,2h-1Z" transform="translate(-639.493 -645.742)"/><path class="a" d="M1035.947,701.769c0,1.8.117,3.212,0,5a6.134,6.134,0,0,1-6,6,6.018,6.018,0,0,1-6-6c-.148-3.525-.139-6.475,0-10,.134-3.4,2.5-6.128,6-6a5.937,5.937,0,0,1,6,6c.019,1.613,0,3.387,0,5Zm-9,0c0,1.583-.039,3.418,0,5,.052,2.138.931,3.028,3,3,1.992-.028,2.993-.919,3-3,.009-3.075.012-6.925,0-10-.008-2.087-.982-2.982-3-3-2.1-.019-2.979.879-3,3C1026.931,698.291,1026.947,700.247,1026.947,701.769Z" transform="translate(-851.412 -631.382)"/><path class="a" d="M920.771,633.961c0,1.583.011,3.417,0,5a6.1,6.1,0,0,1-6,6c-3.722.159-5.833-2.5-6-6-.17-3.552-.16-6.447,0-10,.153-3.411,2.528-6.161,6-6a5.968,5.968,0,0,1,6,6C920.781,630.574,920.771,632.347,920.771,633.961Zm-3,0c0-1.584.01-3.416,0-5a2.7,2.7,0,0,0-3-3c-2-.031-2.984.976-3,3-.025,3.166-.022,6.833,0,10,.014,2.017.945,3.016,3,3a2.687,2.687,0,0,0,3-3C917.781,637.408,917.771,635.514,917.771,633.961Z" transform="translate(-787.237 -593.574)"/><path class="a" d="M1172.883,702c0-2.862-.007-6.138,0-9,0-1.547.452-2,2-2,2.956-.008,5.044,0,8,0a2.474,2.474,0,0,1,2,1,2.382,2.382,0,0,1,0,2c-.367.517-1.447,0-2,0-2.255.005-4.746.045-7,0-.683-.013-.026.311,0,1,.055,1.459.046,3.54,0,5-.02.623-.574.011,0,0,1.553-.031,3.448-.065,5,0,1.285.054,1.715,1.968,1,3-.321.464-.5,0-1,0-1.493,0-3.508.04-5,0-.624-.017-.017.343,0,1,.044,1.673.04,3.327,0,5-.015.634-.649,1.011,0,1,2.346-.037,4.654-.016,7,0,1.01.007,2.112.106,2,1-.1.782-.158,2-1,2-3.169.017-6.831.031-10,0-1.017-.01-1-.777-1-2C1172.872,708.047,1172.883,704.954,1172.883,702Z" transform="translate(-934.349 -631.613)"/><path class="a" d="M916.433,701.993c0-2.894,0-6.106,0-9,0-1.617.395-2,2-2,2.866-.008,6.134.016,9,0,.864,0,1.791,1.1,2,2,.217.937-.9.982-2,1-2.012.034-3.987,0-6,0-1.786,0-2,.184-2,2,0,1.127.042,2.875,0,4-.022.586.385.017,1,0,1.524-.043,3.476-.04,5,0,1.292.034,1.655,1.972,1,3-.337.529-.426,0-1,0-1.494,0-3.506.032-5,0a.977.977,0,0,0-1,1c.032,1.736.031,3.264,0,5a.98.98,0,0,0,1,1c2.287-.027,4.713,0,7,0,1.2,0,1.978.069,2,1a2,2,0,0,1-2,2c-2.9.008-6.1.01-9,0a1.808,1.808,0,0,1-2-2C916.424,708.068,916.433,704.917,916.433,701.993Z" transform="translate(-791.898 -631.606)"/><path class="a" d="M788.221,644.887a15.781,15.781,0,0,0,2-3c4.631-8.384,9.378-16.611,14-25,1.494-2.713,2.485-5.3,4-8,.537,1.056,1.844,1.163,3,1-5.172,9.435-10.828,18.565-16,28-.191.145-.047.778,0,1h0c-.379.016.031-.251,0,0h0c-.17.073.043.861,0,1h-1c-.838,1.5-1.22,2.475-2,4a32.121,32.121,0,0,0-2,4h0c-.17.052,0-.148,0,0a20.225,20.225,0,0,0-2,4h0c-.256.3-.744.7-1,1-.841.343-1.251,1.548-2,2,.375-1.879,1.488-4.164,2-6a24.613,24.613,0,0,0,1-3Z" transform="translate(-718.687 -585.5)"/><path class="a" d="M1074.589,644.989c-.562-.027-1.775-.265-2-1-.337-1.1-.705-2.887-1-4-.142-.535-.425-.013-1,0-1.857.041-3.142.035-5,0-.49-.009-.876-.45-1,0-.289,1.053-.679,1.956-1,3-.346,1.126-1.052,2.292-2,2a1.382,1.382,0,0,1-1-2c1.76-5.615,4.232-11.387,6-17,.146-.462-.132-1.534,0-2,.245-.865,1.182-.982,2-1,.872-.019.724.115,1,1,1.916,6.14,4.088,12.859,6,19C1075.955,644.162,1075.907,644.987,1074.589,644.989Zm-6-16h0c-.8,2.621-2.182,5.32-3,8h5C1069.777,634.324,1069.389,631.617,1068.589,628.989Z" transform="translate(-872.055 -593.602)"/><path class="a" d="M1114.374,631.972c0,2.252.023,4.748,0,7-.035,3.488-3.536,5.984-7,6a5.756,5.756,0,0,1-6-6c-.055-4.687-.009-9.312,0-14a2.157,2.157,0,0,1,2-2c.934-.009,1,.847,1,2,.009,4.566-.016,9.434,0,14,.008,2.041,1.019,3.024,3,3,1.773-.022,3.994-1.209,4-3,.016-4.658-.008-9.342,0-14,0-1.1.047-2.06,1-2a2.346,2.346,0,0,1,2,2C1114.386,627.407,1114.374,629.537,1114.374,631.972Z" transform="translate(-894.839 -593.585)"/><path class="a" d="M1026.077,634.188c0-2.954,0-6.046,0-9,0-1.308-.279-1.995,1-2,2.926-.012,6.074.007,9,0,.8,0,1.752.151,2,1,.284.973-.95,1.985-2,2-2.377.034-4.623.033-7,0a.892.892,0,0,0-1,1c.049,1.521.036,3.478,0,5-.012.53.5.011,1,0,1.432-.031,2.567-.006,4,0a1.945,1.945,0,0,1,2,2c.008,1.013-.727,1-2,1-1.463,0-2.538.034-4,0a1.09,1.09,0,0,0-1,1c.025,1.8.04,3.2,0,5a1.026,1.026,0,0,0,1,1c2.347-.018,4.653-.016,7,0,1.1.007,2.022.04,2,1-.018.827-.165,2-1,2-3.17.018-6.83.02-10,0-.942-.006-1-.993-1-2C1026.069,640.173,1026.077,637.2,1026.077,634.188Z" transform="translate(-852.543 -593.801)"/><path class="a" d="M1145.758,636.982c-.64,1.273-.37,2.738-1,4-.461.924-1.533,2.079-2,3-.536,1.055-1.114,1.465-2,1-.8-.418-1.5-.977-1-2,1.33-2.7,2.633-6.321,4-9,.265-.52.256-.494,0-1-1.274-2.521-1.764-5.461-3-8-.53-1.09-.127-1.883,1-2,.771-.081.675.335,1,1,.842,1.717,2.147,3.288,3,5,.143.287.771.56,1,1,1.054-2.116,2.035-4.02,3-6,.32-.656.229-1.021,1-1,1.158.031,1.536.871,1,2-.82,1.729-1.153,4.284-2,6a18.43,18.43,0,0,1-1,2c-.574.869-.475,1.1,0,2,1.338,2.522,2.729,5.442,4,8,.3.594.441.464,0,1a2.966,2.966,0,0,1-2,1c-.609-.094-.748-.491-1-1-.982-1.987-2.007-4.017-3-6A3.773,3.773,0,0,0,1145.758,636.982Z" transform="translate(-916.223 -593.595)"/><path class="a" d="M1062.438,701.99c0-2.952,0-6.047,0-9,0-1.5.516-2,2-2,1.645,0,3.357-.066,5,0,3.107.126,4.993,2.734,5,6,.008,3.249-1.915,5.859-5,6-1.064.049-2.936.039-4,0-.615-.023-.007.415,0,1,.028,2.4.019,4.6,0,7-.009,1.1-.927,2.2-2,2-.942-.174-1-1.162-1-2C1062.444,708.007,1062.438,704.973,1062.438,701.99Zm3-5c0,.85.026,2.151,0,3-.013.433-.439.011,0,0,1.093-.027,2.91.062,4,0,1.543-.088,2.015-1.276,2-3-.015-1.7-.473-2.913-2-3-1.09-.062-2.907.038-4,0-.523-.018-.012.568,0,1C1065.461,695.779,1065.439,696.2,1065.438,696.99Z" transform="translate(-872.904 -631.603)"/><path class="a" d="M767.948,660.268c.069.712-.068,2.288,0,3a4.022,4.022,0,0,1-1,2c-.232-.173.119-.76,0-1-.648-1.307-1.338-2.7-2-4-.01-.337.19-.708,0-1-.109-1.584-.746-3.438-1-5-.037-.2.273.128,0,0h0a50.818,50.818,0,0,0-1-6c-.682-4.735-1.281-10.27-2-15-.34-2.243-.661-3.757-1-6a7.562,7.562,0,0,1,0-1c1,.473,1.19-.289,2-1,.508,2.218,1.645,4.757,2,7,.536,3.383.488,6.613,1,10,.59,3.9,1.381,8.108,2,12C767.3,656.479,767.449,658.08,767.948,660.268Z" transform="translate(-704.413 -594.88)"/><path class="a" d="M686.072,643.442c2.155,1.826,4.855,4.163,7,6,4.94,4.231,10.062,7.767,15,12,.2.174-.226.853,0,1h0c.01.117-.116-.009,0,0h0a2.69,2.69,0,0,0,1,1c.7.641,1.3,1.359,2,2,.354,1.045,1.383,1.162,2,2a9.9,9.9,0,0,1,2,3c-.088-.02.07.047,0,0-2.576-1.754-5.426-3.242-8-5-.418-.286-.443-.966-1-1h0c0-.253.217.025,0,0h0a3.03,3.03,0,0,0-1-1h0c-.368-1.056-.842-1.984-2-2-1.824-1.782-4.074-3.334-6-5-3.719-3.218-7.279-5.783-11-9a13.961,13.961,0,0,1-2-2C685.19,645.135,685.987,644.612,686.072,643.442Z" transform="translate(-662.537 -605.055)"/><path class="a" d="M958.486,703c0,2.588,0,5.412,0,8a1.873,1.873,0,0,1-2,2c-1.016-.027-1-.707-1-2,0-5.268-.027-10.733,0-16,0-.693-.257-1.077-1-1a12.453,12.453,0,0,1-2,0c-.958-.055-2-.17-2-1a2.366,2.366,0,0,1,2-2c2.926-.026,6.074-.021,9,0,.948.007,1,1.15,1,2s-.04.951-1,1a15.631,15.631,0,0,1-2,0,.882.882,0,0,0-1,1C958.524,697.706,958.486,700.286,958.486,703Z" transform="translate(-810.952 -631.609)"/><path class="a" d="M1137.6,701.775c0-2.953,0-6.047,0-9,0-.458.68-.625,1-1,.446-.523.376-1.17,1-1,.581.158.963.379,1,1,.018.3,0,.7,0,1,0,5.206.028,10.794,0,16,0,.68.31,1.018,1,1,1.858-.049,4.141-.008,6,0,1.3.006,1.992.026,2,1a1.955,1.955,0,0,1-2,2c-2.529.007-5.471.009-8,0a1.8,1.8,0,0,1-2-2C1137.59,707.761,1137.6,704.788,1137.6,701.775Z" transform="translate(-915.063 -631.387)"/><path class="a" d="M788.674,653.025c-.19.43.19.57,0,1-.834,1.305-2.053,2.76-3,4,.746-3.569,2.274-7.427,3-11a28.677,28.677,0,0,0,1-5c.248-.86-.248-2.14,0-3a8.252,8.252,0,0,0,1-2c1.416-4.311,2.576-8.691,4-13,.121-.368.693-.713,1-1a3.121,3.121,0,0,0,3,1c-.922,3.357-2.927,6.691-4,10-1.811,5.589-3.188,11.411-5,17C789.476,651.635,788.67,652.356,788.674,653.025Z" transform="translate(-719.14 -593.638)"/><path class="a" d="M698.533,681.665c-3.1-1.693-5.9-3.313-9-5-2.889-1.571-6.11-3.431-9-5-.18-.1-.929.24-1,0,1.005-.537,2.138-.875,2-2,5.234,2.823,9.763,5.183,15,8a8.327,8.327,0,0,0,2,1c.408,1.24.722,1.11,2,1,.168.17.806.867,1,1,2.372,1.626,4.634,3.367,7,5,.714.493,1.41.344,2,1-1.274-.492-2.707-.562-4-1-1.667-.564-3.273-1.6-5-2l-1-1A7.952,7.952,0,0,0,698.533,681.665Z" transform="translate(-659.999 -619.277)"/><path class="a" d="M729.4,672.581c-.7-.641-1.3-1.358-2-2-.174-.392-.508-.958-1-1h0c.025-.152.152-.026,0,0h0a8.815,8.815,0,0,0-2-3c-2.155-2.5-3.8-4.533-6-7-.2-.225-.939-.687-1-1a2.154,2.154,0,0,0,2-2c1.545,1.758,3.445,3.25,5,5,2.142,2.41,3.836,4.609,6,7,.195.215.541,1.187,1,1h0c.283,1.119,1.2,1.316,2,2h0c-.061.324-.167.806,0,1a27.462,27.462,0,0,0,3,3c.179.178.821.822,1,1,.05.316-.35-.021,0,0h0c-.022.176.839.933,1,1v1c.1.769.89,1.057,1,2-1.737-1.484-3.368-2.636-5-4C732.837,675.277,731.045,673.783,729.4,672.581Z" transform="translate(-680.863 -612.194)"/><path class="a" d="M822.321,649.5c-3.716,4.171-7.281,7.833-11,12-.359.4-.482.759-1,1-1.831-.148-2.652.3-3,2-.189.144.174.841,0,1-1.176,1.068-2.828,1.927-4,3,.334-1.137,1.376-2.053,2-3,1.207-1.834,2.874-3.106,4-5h0a2.866,2.866,0,0,0,1-1c1.057-.334.97-.838,1-2,2.886-3.233,6.114-6.767,9-10C820.556,648.728,821.069,649.456,822.321,649.5Z" transform="translate(-728.787 -607.113)"/><path class="a" d="M713.162,695.539c.558.258.443.742,1,1,1.508.844,3.484,2.169,5,3,2.578,1.412,5.418,2.6,8,4-.239-.019-.761.023-1,0-1.308-.124-2.661-1.055-4-1h-2a32.171,32.171,0,0,0-4-2c-4.446-1.8-9.549-4.214-14-6,.935-.583,2.117-.95,2-2,1.723.38,3.35,1.422,5,2,.683.24,1.321-.251,2,0A9.362,9.362,0,0,0,713.162,695.539Z" transform="translate(-672.628 -632.151)"/><path class="a" d="M758.17,670.168c.254,1.562.891,3.416,1,5a12.818,12.818,0,0,0-1-1c.179-2.173-1.066-3.522-3-3h0c-1.855-5.041-4.152-9.957-6-15a2.195,2.195,0,0,1,0-1,3.094,3.094,0,0,0,3-1c1.063,2.275,1.112,4.659,2,7,1.051,2.772,1.98,5.216,3,8,.069.19.892.824,1,1h0C758.17,670.376,757.992,670.012,758.17,670.168Z" transform="translate(-698.635 -610.78)"/><path class="a" d="M798.265,710.809c2.335-.294,4.691-.578,7-1,.762-.139,1.2-1.086,2-1a2.859,2.859,0,0,0,1,3c-2.384.687-4.584,1.455-7,2-4.1.925-8.9,1.088-13,2h0c-.265-.09-.735.09-1,0a2.774,2.774,0,0,1,1-1c2.454-1.191,4.6-1.695,7-3h0c.186-.006.865.167,1,0h0C797.087,711.987,797.668,711.336,798.265,710.809Z" transform="translate(-719.73 -641.422)"/><path class="a" d="M789.411,732.1c1.936,1.556,3.968,2.583,6,4,1.141.8,2.845,2.225,4,3,.175.117,0-.262,0,0-.977.469-2,.915-2,2-2.339-1.559-4.644-2.468-7-4-2.077-1.351-3.825-2.8-6-4a24.049,24.049,0,0,0-4-3c-.133-.135.133-.865,0-1,.3-.458.573-.141,1,0,2.385.787,4.61,2.227,7,3Z" transform="translate(-715.876 -652.709)"/><path class="a" d="M775.171,751.874c-.078-3.541-.92-7.459-1-11-.014-.605.018-1.395,0-2,.025-.219-.025.22,0,0,.614-2.017,1.386-3.983,2-6l1,1h0c-.122,4.87.067,10.131,0,15-.014.974.011,2.026,0,3C776.233,751.17,776.115,751.266,775.171,751.874Z" transform="translate(-712.636 -654.487)"/><path class="a" d="M757.361,745.04c-.967,2.18-2.005,4.833-3,7a23.463,23.463,0,0,1-2,3c-.549-.988-1.924-1.12-3-1,.682-2.049,2.13-4.033,3-6,1.661-3.753,3.326-7.253,5-11a1.286,1.286,0,0,0,0-1h0c.167-.014-.01.13,0,0l1-1c.4-.156.481-.028,1,0-.663,2.354-1.338,4.647-2,7C756.028,743.169,756.263,743.648,757.361,745.04Z" transform="translate(-698.827 -655.653)"/><path class="a" d="M813.176,682.875c-1.926,1.622-3.991,2.488-6,4-1.674,1.261-3.314,2.755-5,4-.243.18.126.7,0,1-1.014.032-1.591.142-2,1-.12.009-.881-.008-1,0h0c-.147,0,.073.849,0,1h0c-1.063.127-1.951.838-3,1,.015-.426-.257-.759,0-1,2.593-2.43,5.406-5.571,8-8,.239-.223.962.375,1,0,.142-.017-.069-.853,0-1,1.568-.359,1.765-.457,2-2,.465.458.748.17,1,0a43.845,43.845,0,0,1,4-2C812.312,681.933,812.139,682.491,813.176,682.875Z" transform="translate(-724.642 -625.488)"/><path class="a" d="M756.1,730.52c-.123.159-.876.841-1,1h0c-1.905,1.348-3.185,2.546-5,4-.849.68-2.063,2.426-3,3-.149-1.121.131-2.751-1-3,2.294-2.213,4.625-3.879,7-6,1.018-.908,1.982-2.093,3-3,.265-.155.736.155,1,0,.33.261.657-.137,1,0C757.494,727.91,756.7,729.129,756.1,730.52Z" transform="translate(-696.563 -651.132)"/><path class="a" d="M780.885,733.009h0c.008-.712-.008-1.288,0-2a24.023,24.023,0,0,1,4,3c1.211,1.859,2.792,3.139,4,5,.164.252-.15.738,0,1-1.352.011-1.5.718-2,2-1.743-2.635-3.254-5.367-5-8C781.769,733.835,781.015,733.175,780.885,733.009Z" transform="translate(-716.351 -653.622)"/><path class="a" d="M733.291,713.38c.606.177,1.394-.176,2,0a3.848,3.848,0,0,0,1,1c1.423.577,2.577.421,4,1-3.418-.112-6.583.111-10,0-.315-.054-.685.055-1,0a16.435,16.435,0,0,1-3-1c.8-.769.382-1.987,0-3,1.673.005,3.361.778,5,1C731.918,712.465,732.666,713.274,733.291,713.38Z" transform="translate(-685.757 -642.992)"/><path class="a" d="M928.829,678.987c-.012.5-.46.741-1,1-1.671.8-3.311,1.239-5,2a1.6,1.6,0,0,1-2-1c-.35-.76.2-.6,1-1,1.658-.827,3.3-2.253,5-3C927.865,676.53,928.792,677.789,928.829,678.987Z" transform="translate(-794.295 -623.6)"/><path class="a" d="M796.46,682.385a31.991,31.991,0,0,1,2-4c.78-1.525,1.162-2.5,2-4,.062-.057.938.057,1,0h0c.065-.127-.065-.872,0-1h0c.227-.119-.019.259,0,0h0c.2-.055-.058.18,0,0,.706-.718,1.21-2.349,2-3a3.3,3.3,0,0,0,2,2c.026.42-.133.546,0,1h0c-.238-.019-.856-.16-1,0-1.9,2.11-3.062,4.929-5,7A9.772,9.772,0,0,1,796.46,682.385Z" transform="translate(-724.926 -619.997)"/><path class="a" d="M793.014,729.52c-.27-.122-.73.121-1,0-1.551-1.2-3.378-2.9-5-4-.213-.144-.022.288,0,0,.032-.421-.276-.949,0-1,.182-.034.973.158,1,0h0c2.344.8,5.66,2.187,8,3,.415.144.686-.371,1,0a2.9,2.9,0,0,0-1,3Z" transform="translate(-719.48 -650.132)"/><path class="a" d="M756.142,687.72h0c-1.17.753-1.456,1.405-1,3a27.478,27.478,0,0,1-3-3c.007-.294.312-.89,0-1h0c-.073-.725-.894-1.291-1-2,1.071-.019,1.493-.054,2-1a30.115,30.115,0,0,1,2,3A3.692,3.692,0,0,0,756.142,687.72Z" transform="translate(-699.608 -627.333)"/><path class="a" d="M760.766,621.085c-.81.711-1,1.473-2,1-.978-.982-1.51-2.085-1-3a1.721,1.721,0,0,1,2-1C761.16,618.39,761.521,619.524,760.766,621.085Z" transform="translate(-703.232 -590.698)"/><path class="a" d="M700.507,690.771c.117,1.05-1.065,1.417-2,2-1.35.306-1.54-.029-2-1-.412-.871-.793-1.429,0-2A3.029,3.029,0,0,1,700.507,690.771Z" transform="translate(-668.972 -630.384)"/><path class="a" d="M810.273,620.129a3.121,3.121,0,0,1-3-1,2.463,2.463,0,0,1,1-3c.839-.529,1.369.223,2,1a2.535,2.535,0,0,1,0,3C810.087,620.323,810.483,619.959,810.273,620.129Z" transform="translate(-730.738 -589.742)"/><path class="a" d="M683.243,641.038c-.085,1.17-.881,1.693-2,2-1.315-.167-1.831-.052-2-1a3.363,3.363,0,0,1,2-3c1.068-.3,1.6.928,2,2C683.307,641.208,683.191,640.863,683.243,641.038Z" transform="translate(-659.708 -602.651)"/><path class="a" d="M833.768,710.517a2.86,2.86,0,0,1-1-3,2.53,2.53,0,0,1,3-1c.853.425,1.217,2.024,1,3C836.474,710.834,835.317,711.135,833.768,710.517Z" transform="translate(-745.234 -640.129)"/><path class="a" d="M722.168,710.156c.382,1.013.8,2.231,0,3a2.631,2.631,0,0,1-3,0c-.658-.614-.344-1.142,0-2C719.785,709.618,720.944,708.755,722.168,710.156Z" transform="translate(-681.634 -641.768)"/><path class="a" d="M747.559,778.783c1.076-.12,2.451.012,3,1a2.12,2.12,0,0,1-2,3c-.893-.145-1.776-.125-2-1-.217-.847.333-1.457,1-2C747.744,779.632,747.355,778.911,747.559,778.783Z" transform="translate(-697.025 -680.396)"/><path class="a" d="M743.3,747.465c1.131.249.851,1.879,1,3-.355,1.307-.973.927-2,1-.99.07-1.837-.019-2-1-.175-1.059.99-1.754,2-2C742.539,748.408,743.061,747.495,743.3,747.465Z" transform="translate(-693.769 -663.078)"/><path class="a" d="M840.362,606.492c-1.156.163-2.463.056-3-1-.136-1.726.6-3.2,2-3a2.616,2.616,0,0,1,2,2C841.526,605.474,841.5,605.891,840.362,606.492Z" transform="translate(-747.827 -582.105)"/><path class="a" d="M774.775,775.341c.944-.608,1.062-.7,2,0,1.221,1.334,1.421,2.664,0,3-.791.187-2.468.651-3,0s-.333-2.238,0-3C773.882,775.1,774.636,775.573,774.775,775.341Z" transform="translate(-712.24 -677.954)"/><path class="a" d="M843.66,646.8c-1.252-.044-1.765-.772-2-2a2.084,2.084,0,0,1,2-2c.962-.1,1.711.044,2,1A2.617,2.617,0,0,1,843.66,646.8Z" transform="translate(-750.125 -604.413)"/><path class="a" d="M716.733,653.993a2.154,2.154,0,0,1-2,2c-1.347-.234-1.947-.919-2-2-.043-.887.121-1.707,1-2A2.355,2.355,0,0,1,716.733,653.993Z" transform="translate(-678.199 -609.606)"/><path class="a" d="M678.095,667.807c.138,1.125-.994,1.463-2,2-1.926.5-2.251-.871-2-2,.195-.88.149-1.893,1-2A3.692,3.692,0,0,1,678.095,667.807Z" transform="translate(-656.56 -617.42)"/><path class="a" d="M638.662,716.367a2.555,2.555,0,0,1,0,3c-1.241.787-2.3-.046-3-1-.636-.864-.785-1.272,0-2A2.192,2.192,0,0,1,638.662,716.367Z" transform="translate(-635.128 -644.98)"/><path class="a" d="M819.524,753.456c0-1.085,1.023-1.531,2-2,1.439-.085,1.808.911,2,2,.181,1.024-.052,1.667-1,2s-1.513-.084-2-1C820.425,754.27,819.607,753.651,819.524,753.456Z" transform="translate(-737.989 -665.069)"/><path class="a" d="M765.461,753.7c-1.1-1.391-1.333-1.87,0-3,.483-.22.492-1,1-1a7.655,7.655,0,0,1,2,1,3.016,3.016,0,0,1-1,3C766.631,754.473,766.388,754.222,765.461,753.7Z" transform="translate(-706.926 -664.313)"/><path class="a" d="M750.567,650.41a3.093,3.093,0,0,1-3,1,2.173,2.173,0,0,1,1-4c1.15.1,2.16.846,2,2C750.535,649.644,750.624,650.179,750.567,650.41Z" transform="translate(-697.033 -607.023)"/><path class="a" d="M811.053,560.892c-1.119.455-1.231-.059-2-1-.414-.953-.811-2.272,0-3,.678-.609,1.188-.415,2,0C812.43,557.6,812.359,559.615,811.053,560.892Z" transform="translate(-731.519 -556.504)"/><path class="a" d="M807.4,734.149a2.9,2.9,0,0,1,1-3,2.193,2.193,0,0,1,3,1,3.018,3.018,0,0,1-1,3,2.688,2.688,0,0,1-3,0C807.193,734.97,807.576,734.353,807.4,734.149Z" transform="translate(-730.862 -653.762)"/><path class="a" d="M723.747,688.145c-1.278.11-1.592.24-2-1a2.844,2.844,0,0,1,2-3c1.158.016,1.632.944,2,2-.006.988-.037,1.566-1,2Z" transform="translate(-683.213 -627.758)"/><path class="a" d="M833.2,680.544c-1.037-.384-.864-.942-1-2,.246-.9.016-1.8,1-2,1.061-.217,2.779-.024,3,1a2.907,2.907,0,0,1-2,3A9.216,9.216,0,0,1,833.2,680.544Z" transform="translate(-744.663 -623.157)"/><path class="a" d="M814.643,669.309a3.3,3.3,0,0,1-2-2c.014-1.661,1.583-2.154,3-2,.933.1.742.836,1,2-.029,1.162.057,1.666-1,2C815.471,669.31,814.814,669.307,814.643,669.309Z" transform="translate(-734.108 -616.921)"/><path class="a" d="M794,753.388c.5-1.282.648-1.989,2-2,.884.327,1.891,1,2,2,.116,1.063-.942,1.873-2,2-1.126.135-1.875-.9-2-2C793.979,753.178,794.008,753.6,794,753.388Z" transform="translate(-723.468 -665.001)"/><path class="a" d="M751.046,680.425c-.507.946-.929.982-2,1-.372-.18-.628.18-1,0h0c-.292-.523-1.066-1.35-1-2a2.075,2.075,0,0,1,2-2,2.1,2.1,0,0,1,2,2C751.058,679.666,751.045,680.183,751.046,680.425Z" transform="translate(-697.511 -624.038)"/><path class="a" d="M816.453,684.024c-.235,1.543-.432,1.641-2,2h0c-.466-.258-.644.4-1,0l-1-2c.348-1.7,1.169-2.148,3-2A2.4,2.4,0,0,1,816.453,684.024Z" transform="translate(-733.919 -626.637)"/><path class="a" d="M804.97,706.871c.409-.858.987-.969,2-1,1.833.3,1.905,1.276,1,3-.6.527-1.178,1.179-2,1C804.8,709.425,804.83,708.084,804.97,706.871Z" transform="translate(-729.436 -639.483)"/><path class="a" d="M771.708,745.051a7.644,7.644,0,0,0-2-1c.356-1.631,1.191-2.544,2-4v3c-.025.219.025-.219,0,0C771.3,743.645,772.2,744.489,771.708,745.051Z" transform="translate(-710.174 -658.664)"/><path class="a" d="M723.308,698.586a9.357,9.357,0,0,1-2-1h0A7.959,7.959,0,0,1,723.308,698.586Z" transform="translate(-682.774 -635.199)"/><path class="a" d="M795.738,654.625a8.243,8.243,0,0,1-1,2c-.022-.692.826-1.347,1-2Z" transform="translate(-724.204 -611.238)"/><path class="a" d="M807.833,676.116c-.058.18.2-.055,0,0-.047-.222-.19-.855,0-1Z" transform="translate(-731.298 -622.729)"/><path class="a" d="M796.331,653.956c-.029-.057-.067.026,0,0C796.319,654,796.357,653.918,796.331,653.956Z" transform="translate(-724.796 -610.569)"/><path class="a" d="M784.392,665.366a28.687,28.687,0,0,1-1,5c-.726,3.573-2.254,7.431-3,11a72.153,72.153,0,0,1-3,7,3.266,3.266,0,0,1-1-1,4.024,4.024,0,0,0,1-2c.929-2.107,1.277-4.824,2-7C780.86,673.951,782.93,669.783,784.392,665.366Z" transform="translate(-713.858 -616.979)"/><path class="a" d="M751.793,715.128c-1.423-.579-2.577-.423-4-1a3.84,3.84,0,0,1-1-1c1.339-.055,2.691.876,4,1,.239.023.761-.019,1,0a5.644,5.644,0,0,0,2,0c-.345-.223-.855.1-1,0a17.351,17.351,0,0,1-3-3l3,1c1.615.738,3.327,1.4,5,2,.355.718.645,1.282,1,2v2h0c-.343-.137-.67.261-1,0h0c.392-.257-.576-.837-1-1C755.045,716.458,753.54,715.8,751.793,715.128Z" transform="translate(-697.259 -642.741)"/><path class="a" d="M745.367,719.738c1.746.675,3.251,1.331,5,2,.424.163,1.392.743,1,1-3.243-.6-6.757-1.406-10-2-1.844-.338-4.156-.658-6-1-.11-.02.1.055,0,0C738.785,719.849,741.949,719.626,745.367,719.738Z" transform="translate(-690.833 -647.351)"/><path class="a" d="M797.416,686.567c.109.357.89,1.643,1,2-1.581,1.486-3.7,2.267-5,4a18.384,18.384,0,0,0,2-1,36.509,36.509,0,0,1,4-2h0c-.038.375-.761-.223-1,0-2.594,2.429-5.407,5.57-8,8-.257.241.014.574,0,1h0c-.154,0-.923-.147-1,0-.431.243-.569.757-1,1-.994.148-1.843.894-3,1,.369-.661.734-1.433,1-2,.287-.614,1.044-1.235,1-2,.256-.3.744-.7,1-1h0a63.7,63.7,0,0,0,5-5c.2-.063-.059.214,0,0h0c1.172-1.073,2.824-1.932,4-3C797.59,687.408,797.227,686.711,797.416,686.567Zm-4,7c-.012-.021.018.007,0,0s.027,0,0,0Z" transform="translate(-718.882 -629.18)"/><path class="a" d="M796.878,684.825a63.743,63.743,0,0,1-5,5,20.2,20.2,0,0,1,2-4c.157-.059,0,.148,0,0h0a9.754,9.754,0,0,0,3-2c1.938-2.071,3.1-4.89,5-7,.144-.16.762-.019,1,0-1.126,1.894-2.793,3.166-4,5-.624.947-1.666,1.863-2,3h0C796.593,684.791,796.955,684.631,796.878,684.825Z" transform="translate(-722.344 -623.438)"/><path class="a" d="M778.106,703.591a72.127,72.127,0,0,0,3-7c.947-1.24,2.166-2.695,3-4a24.68,24.68,0,0,1-1,3c-.513,1.836-1.625,4.121-2,6-.17.3.17.7,0,1-.528.088-1.655-.4-2,0-.382.44-.222,1.468-1,1Z" transform="translate(-714.572 -632.203)"/><path class="a" d="M783.191,711.495c.17-.3-.17-.7,0-1,.749-.452,1.159-1.657,2-2,.043.765-.713,1.386-1,2-.266.568-.631,1.339-1,2,1.157-.106,2.006-.852,3-1-.124.6-.571.7-1,1-.063-.074.131-.162,0,0h0a6.877,6.877,0,0,1-1,1,3.018,3.018,0,0,0-1,1c-.21.377.038.6,0,1-.6.241-.4.759-1,1-.032-.547-.767-1.477-1-2C781.763,713.4,782.893,712.674,783.191,711.495Z" transform="translate(-716.657 -641.108)"/><path class="a" d="M807.392,676.807c-.019.259.227-.119,0,0C807.422,676.556,807.013,676.823,807.392,676.807Z" transform="translate(-730.858 -623.42)"/><path class="a" d="M807.159,677.492c-.065.128.065.873,0,1C807.2,678.354,806.989,677.566,807.159,677.492Z" transform="translate(-730.625 -624.105)"/><path class="a" d="M796.194,697.334c0,.148.157-.059,0,0C796.19,697.186,796.024,697.386,796.194,697.334Z" transform="translate(-724.659 -634.947)"/><path class="a" d="M791.679,706.136Z" transform="translate(-722.145 -639.749)"/><path class="a" d="M806.943,678.952c-.062.057-.938-.057-1,0C806,678.895,806.881,679.008,806.943,678.952Z" transform="translate(-730.409 -624.565)"/><path class="a" d="M755.919,695.506a12.807,12.807,0,0,1,1,1c.19.292-.01.664,0,1-.074,1.434.81,2.6,1,4,.061.447-.713.577-1,1h0c.011-.135.145.059,0,0h0a2.789,2.789,0,0,0-1-1c-.235-.178.04-.129,0,0-.423-.283-.584.293-1,0-1.647-1.159-3.431-2.728-5-4,.191-.3-.885.021-1,0h0a9.9,9.9,0,0,0-2-3c-.617-.838-1.646-.955-2-2,1.647,1.2,3.439,2.7,5,4,1.632,1.364,3.263,2.516,5,4-.11-.943-.9-1.232-1-2,.42.125.636.623,1,1,.04-.961-.083-2.168,0-3C755.509,696.276,755.615,696.051,755.919,695.506Z" transform="translate(-696.385 -632.119)"/><path class="a" d="M771.393,708.992c.286-.423,1.061-.553,1-1-.19-1.4-1.074-2.566-1-4,.662,1.3,1.352,2.693,2,4,.119.24-.232.827,0,1a3.259,3.259,0,0,0,1,1c0,.1,0-.1,0,0,.072.286-.081.677,0,1h-1Z" transform="translate(-710.859 -638.604)"/><path class="a" d="M768.992,690.16c-.177-.156,0,.209,0,0C769.266,690.288,768.955,689.962,768.992,690.16Z" transform="translate(-709.458 -630.773)"/><path class="a" d="M743.229,696.37c1.569,1.272,3.353,2.841,5,4,.417.293.577-.283,1,0,.12.086-.12.914,0,1,.183.484.817.516,1,1-1.673-.6-3.385-1.262-5-2-.543-.51-1.429-.524-2-1a18.965,18.965,0,0,0-3-2c-.081-.171.184-.936,0-1h0c-.128-.221-.8,0-1,0h0c0-.18.157-.867,0-1-1.234-1.052-1.792-1.918-3-3-.867-.776-2.353-.989-3-2,.557.035.582.714,1,1,2.574,1.758,5.424,3.246,8,5,.069.047-.088-.02,0,0h1Z" transform="translate(-689.695 -630.983)"/><path class="a" d="M730.242,689.269c.647,1.011,2.133,1.223,3,2,1.207,1.082,1.766,1.948,3,3,.157.133,0,.82,0,1a5.667,5.667,0,0,1-2-1c-2.065-1.131-4.028-2.7-6-4,.963-.434.994-1.012,1-2h0c.086.266.724,1,1,1h0c0,.251-.247.007,0,0Z" transform="translate(-686.708 -629.882)"/><path class="a" d="M738.2,686.089c.492.042.826.608,1,1A2.689,2.689,0,0,1,738.2,686.089Z" transform="translate(-692.663 -628.702)"/><path class="a" d="M732.063,689.445c-.276,0-.914-.734-1-1A3.03,3.03,0,0,1,732.063,689.445Z" transform="translate(-688.529 -630.058)"/><path class="a" d="M732.742,689.933c-.247.007,0,.252,0,0C732.959,689.958,732.743,689.679,732.742,689.933Z" transform="translate(-689.208 -630.546)"/><path class="a" d="M737.968,685.853c.152-.026.025-.151,0,0C737.851,685.844,737.978,685.97,737.968,685.853Z" transform="translate(-692.433 -628.466)"/><path class="a" d="M727.968,693.069c1.972,1.3,3.935,2.869,6,4a5.664,5.664,0,0,0,2,1h0c.127.226.8,0,1,0h0c0,.255-.241,1,0,1a18.975,18.975,0,0,1,3,2c.571.476,1.457.49,2,1-.917-.308-2.082-.693-3-1h0c-.125-.2-.817.061-1,0-.435-.225-.564-.775-1-1-.59-.656-1.286-.508-2-1-2.366-1.633-4.629-3.374-7-5-.194-.133-.832-.83-1-1C727.04,693.021,727.895,693.118,727.968,693.069Z" transform="translate(-686.433 -632.682)"/><path class="a" d="M738.141,704.831c.435.225.565.775,1,1,.1.268.793-.006,1,0h0a17.37,17.37,0,0,0,3,3c.144.1.655-.223,1,0a5.649,5.649,0,0,1-2,0c-2.582-1.4-5.422-2.588-8-4-1.516-.831-3.492-2.156-5-3,1.728.4,3.334,1.436,5,2C735.434,704.269,736.866,704.339,738.141,704.831Z" transform="translate(-687.607 -637.444)"/><path class="a" d="M764.329,696c-.3.544-.411.77-1,1a2.423,2.423,0,0,1-1,0h-1c-.179-.178-.821-.822-1-1-.456-1.595-.17-2.247,1-3C763.262,692.48,764.508,693.829,764.329,696Z" transform="translate(-704.794 -632.615)"/><path class="a" d="M763.98,701.917a2.422,2.422,0,0,0,1,0c-.084.832.039,2.039,0,3-.364-.377-.58-.875-1-1-.185-.307.185-.693,0-1a3.158,3.158,0,0,0-1-1h0C763.053,701.818,763.906,702.017,763.98,701.917Z" transform="translate(-706.445 -637.53)"/><path class="a" d="M748.74,685.85c.372.18.628-.18,1,0,.106.709.927,1.275,1,2C749.936,687.166,749.023,686.969,748.74,685.85Z" transform="translate(-698.206 -628.463)"/><path class="a" d="M763.289,701.615c-.074.1-.926-.1-1,0-.35-.021.05.316,0,0C762.546,701.7,763.032,701.529,763.289,701.615Z" transform="translate(-705.755 -637.227)"/><path class="a" d="M753.236,690.851c.312.11.008.706,0,1C753.068,691.658,753.175,691.175,753.236,690.851Z" transform="translate(-700.701 -631.464)"/><path class="a" d="M762.979,702.309a3.158,3.158,0,0,1,1,1C763.82,703.242,762.957,702.486,762.979,702.309Z" transform="translate(-706.445 -637.922)"/><path class="a" d="M816.449,674.409c.172,0,.829,0,1,0a2.865,2.865,0,0,1-1,1C816.316,674.955,816.475,674.829,816.449,674.409Z" transform="translate(-735.915 -622.022)"/><path class="a" d="M780.974,725.18c.6-.241.4-.759,1-1,.151-.016.849.016,1,0,.265.09.735-.09,1,0-.027.158-.818-.034-1,0-.276.05.032.579,0,1-.022.288-.213-.144,0,0,1.622,1.1,3.449,2.8,5,4-2.39-.774-4.615-2.213-7-3-.427-.141-.7-.457-1,0h0A2.444,2.444,0,0,0,780.974,725.18Z" transform="translate(-715.44 -649.793)"/><path class="a" d="M786.007,719.217c-.151.016-.849-.016-1,0,.039-.4-.209-.623,0-1a3.018,3.018,0,0,1,1-1,6.892,6.892,0,0,0,1-1,1.838,1.838,0,0,0,1,0c.207.019.869.227,1,0h0c.238-.027.765.045,1,0,1.474-.28,2.493-.9,4-1-2.4,1.305-4.546,1.809-7,3A2.773,2.773,0,0,0,786.007,719.217Z" transform="translate(-718.472 -644.83)"/><path class="a" d="M799.036,711.732c-1.507.1-2.526.72-4,1-.235.045-.762-.027-1,0,.011-.435.721-.773,1-1,1.046-.85,2.075-1,3-2h0c.15,0-.076-.856,0-1h0c.119-.008.88.009,1,0-.14,1.213-.172,2.554,1,3h0c-.2-.034-.883-.225-1,0Z" transform="translate(-723.502 -641.344)"/><path class="a" d="M805.488,714.981c.117-.225.8-.034,1,0C806.352,715.148,805.674,714.975,805.488,714.981Z" transform="translate(-729.953 -644.594)"/><path class="a" d="M779.517,729.227h0c.133.135-.133.865,0,1-.008.712.007,1.288,0,2-.346-.482-.654-.518-1-1-.017-.066.017-.934,0-1Z" transform="translate(-714.982 -652.84)"/><path class="a" d="M771.816,729.992c.017.066-.017.934,0,1-.613,2.017-1.386,3.983-2,6v-3c-.809,1.456-1.643,2.369-2,4-.507,0-.517.78-1,1,.662-2.353,1.337-4.646,2-7,.077-.132-.077-.869,0-1,.857-.513,1.069-1.584,2-2,.24-.107.773-.214,1,0,.207.2.035.777,0,1S771.611,729.844,771.816,729.992Z" transform="translate(-708.282 -652.605)"/><path class="a" d="M770.017,729.653c-.077.132.077.868,0,1-.519-.028-.6-.156-1,0,.6-1.391,1.4-2.61,2-4h0C770.973,727.734,770.12,728.585,770.017,729.653Z" transform="translate(-709.483 -651.266)"/><path class="a" d="M767.3,737.511h0C767.294,737.641,767.472,737.5,767.3,737.511Z" transform="translate(-708.77 -657.124)"/><path class="a" d="M795.266,710.212c-.925,1-1.954,1.15-3,2-.279.227-.989.565-1,1h0c-.2,0-.861-.2-1,0a1.837,1.837,0,0,1-1,0h0c.429-.3.876-.4,1-1,.431-.243.57-.757,1-1,.156.007.929.158,1,0h0C793.316,711.049,794.2,710.339,795.266,710.212Z" transform="translate(-720.732 -641.825)"/><path class="a" d="M816.452,691.1h0c-.069.147.142.983,0,1h0C816.454,692.046,816.456,691.152,816.452,691.1Z" transform="translate(-735.918 -631.712)"/><path class="a" d="M802.877,708.978c-.076.144.15,1,0,1C802.949,709.827,802.73,708.979,802.877,708.978Z" transform="translate(-728.342 -641.591)"/><path class="a" d="M803.331,708.764Z" transform="translate(-728.797 -641.377)"/><path class="a" d="M809.5,689.915c0,.053,0,.946,0,1a36.531,36.531,0,0,0-4,2,18.373,18.373,0,0,1-2,1c1.3-1.733,3.419-2.514,5-4C808.86,690.318,809.039,689.657,809.5,689.915Z" transform="translate(-728.97 -630.528)"/><path class="a" d="M777.484,722.867a2.444,2.444,0,0,1-1,1c-1.544.365-2.123.233-3-1-.023-.5.023-1.5,0-2,.344-.595.323-.781,1-1a1.85,1.85,0,0,1,2,1C776.718,721.39,777.453,722.32,777.484,722.867Z" transform="translate(-711.95 -647.479)"/><path class="a" d="M772.455,716.978c-.677.219-.656.405-1,1-.354-.719-.645-1.282-1-2-.183-.484-.817-.516-1-1a1.737,1.737,0,0,0,1,0h0c-.013.136-.144-.06,0,0h0c.593.487,1.406,1.514,2,2C772.461,717.02,772.465,716.936,772.455,716.978Z" transform="translate(-709.921 -644.59)"/><path class="a" d="M772.605,726.392c.877,1.233,1.456,1.365,3,1h0c-.121.371-.879.629-1,1-.2-.148-.033.214,0,0s.207-.8,0-1c-.227-.214-.76-.107-1,0-.932.416-1.143,1.487-2,2,.1-1.068.956-1.918,1-3C772.611,726.323,772.6,726.461,772.605,726.392Z" transform="translate(-711.071 -651.005)"/><path class="a" d="M802.805,695.146c.077-.195-.285-.034,0,0C802.746,695.36,803,695.082,802.805,695.146Z" transform="translate(-728.271 -633.758)"/><path class="a" d="M803.039,701.415h0c.026,0-.021-.008,0,0S803.027,701.394,803.039,701.415Z" transform="translate(-728.505 -637.028)"/><path class="a" d="M795.721,712.575c-.071.158-.844.007-1,0C794.8,712.428,795.567,712.574,795.721,712.575Z" transform="translate(-724.187 -643.188)"/><path class="a" d="M776.327,716.738c.01-.041.006.042,0,0h1c-.081-.323.072-.714,0-1,.779.468.618-.56,1-1,.346-.4,1.472.088,2,0-.3,1.179-1.428,1.908-2,3A1.85,1.85,0,0,0,776.327,716.738Z" transform="translate(-713.793 -644.35)"/><path class="a" d="M789.438,716.94h0c.131-.162-.063-.073,0,0Z" transform="translate(-720.903 -645.553)"/><path class="a" d="M770,714.205a1.737,1.737,0,0,1-1,0c-.12-.085.12-.915,0-1,.04-.13-.235-.178,0,0A2.79,2.79,0,0,1,770,714.205Z" transform="translate(-709.47 -643.818)"/><path class="a" d="M771.853,715.456c-.143-.06-.013.136,0,0C772,715.515,771.864,715.321,771.853,715.456Z" transform="translate(-711.319 -645.069)"/><path class="a" d="M754.933,703.985h-1C754.047,704.006,755.124,703.687,754.933,703.985Z" transform="translate(-701.399 -638.598)"/><path class="a" d="M748.947,705.215c-.241,0,0-.745,0-1C749.131,704.279,748.866,705.044,748.947,705.215Z" transform="translate(-698.413 -638.828)"/><path class="a" d="M748.261,703.978c-.2,0-.873.226-1,0C747.465,703.98,748.132,703.757,748.261,703.978Z" transform="translate(-697.726 -638.591)"/><path class="a" d="M752.805,710.844c-.207-.006-.9.268-1,0C751.989,710.9,752.681,710.641,752.805,710.844Z" transform="translate(-700.271 -642.457)"/><path class="a" d="M792.343,717.341c.139-.2.8,0,1,0C793.212,717.569,792.549,717.36,792.343,717.341Z" transform="translate(-722.809 -645.954)"/></g></svg>