<svg xmlns="http://www.w3.org/2000/svg" width="128" height="68.117" viewBox="0 0 128 68.117"><defs><style>.a{fill:#d0d0d0;}</style></defs><g transform="translate(-0.277)"><path class="a" d="M768.808,156.78l1-2v-1c.052-.426-.036-.606,0-1v-3c.124,1.287.876,2.838,1,4,.042.494-.062.474,0,1v2c.051.5-.042.584,0,1s-.03.7,0,1l2,20h5l8-19,1-1v-2l1-1c.233-.493-.2-.537,0-1l2-4v3l-1,2c-.166.868.136,2.162,0,3l-4,20h6l6-34h-9l-8,19-1,2c-.34.7-.714,1.32-1,2l-1,2c-.1-.866.061-1.181,0-2-.066-.686-.93-1.274-1-2s.048-1.5,0-2l-2-19h-8l-6,34h6l3-21C768.878,157.465,768.755,157.159,768.808,156.78Z" transform="translate(-734.531 -129.78)"/><path class="a" d="M699.191,262.374h-9l-1,2h4l-2,10h2l2-10h3Z" transform="translate(-688.915 -206.374)"/><path class="a" d="M714.3,274.374h8l1-1h-7l1-4h6v-2h-6v-3h7v-2h-8Z" transform="translate(-705.018 -206.374)"/><path class="a" d="M748.487,265.045c.4-.528.42-.7,1-1s1.255-1,2-1c.441,0,.661.886,1,1s.755-.193,1,0a7.025,7.025,0,0,1,1,1c.161.243-.075-.263,0,0h1c-.1-.369.211-.653,0-1a4.361,4.361,0,0,0-1-1c-.351-.268-.506-.835-1-1a8.082,8.082,0,0,0-2,0,8.107,8.107,0,0,0-2,0c-.543.165-.541.7-1,1a4.227,4.227,0,0,0-1,1,11.546,11.546,0,0,0-1,2c-.254.534-.864.374-1,1a9.755,9.755,0,0,0,0,2,7.294,7.294,0,0,0,0,2,7.072,7.072,0,0,0,1,2c.369.444.435.743,1,1s1.249,0,2,0a8.394,8.394,0,0,0,2,0,11.135,11.135,0,0,0,2-1,5.206,5.206,0,0,0,1-1c.31-.363-.248-.592,0-1h-1c-.193.313.255-.293,0,0a7.28,7.28,0,0,1-1,1c-.316.227-.618.863-1,1a9.776,9.776,0,0,1-2,0c-.515,0-.606.179-1,0a3.453,3.453,0,0,1-1-1c-.26-.322.134-.559,0-1s-1-1.475-1-2c0-.855.789-1.276,1-2A6.534,6.534,0,0,1,748.487,265.045Z" transform="translate(-725.21 -206.045)"/><path class="a" d="M784.852,267.374h-6l1-5h-1l-2,12h1l1-5h6l-1,5h2l2-12h-2Z" transform="translate(-745.576 -206.374)"/><path class="a" d="M816.932,270.374c-.055.288.043.712,0,1v1c-.044.269.043.759,0,1l-4-11h-2l-2,12h1l2-8c.043-.218-.037-.743,0-1h0c.048-.265-.04-.746,0-1l4,10h2l2-12h-1Z" transform="translate(-766.655 -206.374)"/><path class="a" d="M851.688,263.045c-.388-.43-.436-.763-1-1a5.645,5.645,0,0,0-2,0c-.807,0-1.311.735-2,1a6.259,6.259,0,0,0-2,1c-.534.489-.646.313-1,1a14.132,14.132,0,0,0-1,3,9.655,9.655,0,0,0,0,1c-.022.268,0-.257,0,0a4.61,4.61,0,0,0,1,4c.379.439.429.757,1,1s1.237,0,2,0a11.463,11.463,0,0,0,3,0c.683-.263.466-.514,1-1a10.034,10.034,0,0,0,2-2c.36-.69-.155-1.139,0-2,.029-.272.969-.708,1-1s-.006-.726,0-1c0-.715-.8-1.408-1-2A7.019,7.019,0,0,0,851.688,263.045Zm0,5h0a9.558,9.558,0,0,1-1,2c-.251.562.382,1.606,0,2a7.32,7.32,0,0,1-2,1,6.383,6.383,0,0,1-2,0c-.5,0-.606.148-1,0s-.727-.7-1-1-.857-.55-1-1a9.346,9.346,0,0,1,0-2c0-.218-.022.243,0,0s-.044-.76,0-1a9.665,9.665,0,0,1,1-2c.248-.564.615-.609,1-1s.479-.794,1-1,1.336-1,2-1c.49,0,.609.849,1,1s.724-.3,1,0,.851.551,1,1a8.936,8.936,0,0,1,0,2C851.688,267.258,851.718,267.8,851.688,268.045Z" transform="translate(-788.412 -206.045)"/><path class="a" d="M879.741,262.374h-1l-2,12h6l1-1h-6Z" transform="translate(-810.465 -206.374)"/><path class="a" d="M911.663,263.045c-.388-.43-.436-.763-1-1a5.645,5.645,0,0,0-2,0c-.807,0-1.311.735-2,1a6.255,6.255,0,0,0-2,1c-.534.489-.646.313-1,1a14.153,14.153,0,0,0-1,3,9.864,9.864,0,0,0,0,1c-.022.268,0-.257,0,0a4.61,4.61,0,0,0,1,4c.379.439.429.757,1,1s1.237,0,2,0c.8,0,1.318.263,2,0a6.3,6.3,0,0,0,2-1,10.028,10.028,0,0,0,2-2c.36-.69-.155-1.139,0-2,.029-.272-.031-.708,0-1s.994-.726,1-1c0-.715-.8-1.408-1-2A7.019,7.019,0,0,0,911.663,263.045Zm0,5c-.029.249.028-.24,0,0a9.549,9.549,0,0,1-1,2,8.75,8.75,0,0,1-1,2c-.382.394-.475.791-1,1a6.383,6.383,0,0,1-2,0c-.5,0-.606.148-1,0s-.727-.7-1-1-.857-.55-1-1a9.35,9.35,0,0,1,0-2c0-.218-.022.243,0,0s-.044-.76,0-1a9.665,9.665,0,0,1,1-2c.248-.564.615-.609,1-1s.479-.794,1-1,1.336-1,2-1c.49,0,.609.849,1,1s.724-.3,1,0,.851.551,1,1a8.932,8.932,0,0,1,0,2C911.663,267.258,911.693,267.8,911.663,268.045Z" transform="translate(-827.387 -206.045)"/><path class="a" d="M939.255,265.045c.412-.522,1.4-.706,2-1s1.218-1,2-1c.447,0,.667.9,1,1s.77-.176,1,0a6.626,6.626,0,0,1,1,1c.143.232-.075-.262,0,0h1c-.112-.369.211-.665,0-1a4.529,4.529,0,0,0-1-1c-.341-.257-.513-.849-1-1a8.82,8.82,0,0,0-2,0,8.461,8.461,0,0,0-3,1c-.8.355-1.441.366-2,1a4.952,4.952,0,0,0-1,2,10,10,0,0,0,0,3,6.556,6.556,0,0,0,0,2,6.459,6.459,0,0,0,1,2c.408.435.378.757,1,1a12.354,12.354,0,0,0,3,0c.584,0,.513.1,1,0s1.592.172,2,0,.664-.768,1-1a11.82,11.82,0,0,0,1-1v-4h-4v2h3l-1,2c-.155.14.23-.156,0,0s-.692.874-1,1-.618-.084-1,0a3.966,3.966,0,0,1-1,0,7.252,7.252,0,0,1-2,0c-.435-.185-.718-.673-1-1s-.864-.547-1-1a9.741,9.741,0,0,1,0-2c0-.838.789-1.288,1-2S938.842,265.568,939.255,265.045Z" transform="translate(-849.979 -206.045)"/><path class="a" d="M971.691,274.374h1l2-12h-1Z" transform="translate(-872.414 -206.374)"/><path class="a" d="M983.569,274.374h8v-1h-6v-4h6l1-2h-6v-3h7v-2h-8Z" transform="translate(-880.293 -206.374)"/><path class="a" d="M865.658,111.353c.542-.4.4-1.458,0-2l-4-6,57,12-49,25-2,2,18-22,1-5h-22l-1,6h15l-20,23-1,5h24l1-6h-12l55-29-69-14,8,10C865.059,110.9,865.117,111.753,865.658,111.353Z" transform="translate(-797.382 -100.353)"/></g></svg>